# xmcd
#
# Track frame offsets: 
#        151
#        21323
#        42414
#        62617
#        79959
#        93968
#        113245
#        133447
#        148977
#        167485
#        181485
#        197614
#
# Disc length: 2806 seconds
#
# Revision: 1
# Processed by: cddbd v1.5.2PL0 Copyright (c) Steve Scherf et al.
# Submitted via: ExactAudioCopy v0.99pb5
#
DISCID=ae0af40c
DTITLE=Juan Pablo Barrios and his salsa latin jazz - Algo differente
DYEAR=2007
DGENRE=Salsa
TTITLE0=Una Rumba
TTITLE1=Mambo Juan Pa s 
TTITLE2=Pachanga En Changa
TTITLE3=Timbalito
TTITLE4=My Reviere
TTITLE5=Algo Differente
TTITLE6=Godin Guidon
TTITLE7=1 2 3
TTITLE8=Diferente
TTITLE9=Tu Q Va Ce
TTITLE10=Hotel by Willie
TTITLE11=Cute
EXTD=
EXTT0=
EXTT1=
EXTT2=
EXTT3=
EXTT4=
EXTT5=
EXTT6=
EXTT7=
EXTT8=
EXTT9=
EXTT10=
EXTT11=
PLAYORDER=
